<?xml version="1.0" encoding="UTF-8" standalone="no"?>
<!DOCTYPE svg PUBLIC "-//W3C//DTD SVG 1.1//EN" "http://www.w3.org/Graphics/SVG/1.1/DTD/svg11.dtd">
<svg width="100%" height="100%" viewBox="0 0 323 303" version="1.1" xmlns="http://www.w3.org/2000/svg" xmlns:xlink="http://www.w3.org/1999/xlink" xml:space="preserve" xmlns:serif="http://www.serif.com/" style="fill-rule:evenodd;clip-rule:evenodd;stroke-linejoin:round;stroke-miterlimit:2;">
    <g>
        <path d="M157.22,290.49C135.04,277.15 114.73,256.78 95.98,229.1C86.31,214.82 77.78,199.98 68.42,181.26C64.23,172.82 63.89,172.15 59.49,162.42C50.01,141.47 40.56,116.57 33.64,94.36C27.28,73.93 20.18,48.3 20.18,45.85C20.18,45.15 22.66,42.55 35.47,29.91L50.79,14.83L58.5,14.65C62.75,14.56 112.98,14.44 170.14,14.41L274.08,14.38L276.28,16.43C277.5,17.59 284.08,23.8 290.96,30.26L303.41,42.04L303.41,43.32C303.41,46.32 297.2,71.64 292.28,88.71C279.53,133 262.95,171.69 241.57,207.02C220.04,242.62 192.66,272.84 166.2,290.28C161.92,293.09 161.58,293.12 157.21,290.49L157.22,290.49ZM165.29,286.39C182.02,274.86 198.02,259.6 213.83,240.11C233.71,215.58 252.46,183.34 267.85,147.28C280.08,118.62 290.18,86.78 298.71,50.01L300.06,44.2L296.45,40.71C285.96,30.56 272.13,17.89 271.61,17.92C271.27,17.92 221.97,17.95 162.08,17.98L53.13,18.04L49.28,21.77C47.17,23.85 40.59,30.3 34.66,36.18L23.89,46.82L24.65,50.09C26.12,56.15 30.65,72.36 33.83,82.82C34.53,85.08 34.66,85.3 35.18,85.02C35.85,84.65 37.05,83.15 37.72,81.81C37.96,81.32 39.43,77.37 40.96,73.09C42.52,68.81 44.75,62.63 45.95,59.36C47.79,54.28 48.06,53.36 47.72,52.78C47.54,52.38 47.41,51.62 47.48,51.04C47.57,50 47.57,50 49.41,49.82C50.42,49.7 53.48,49.61 56.23,49.58L61.19,49.55L61.19,50.56C61.19,51.32 60.98,51.75 60.27,52.24C59.78,52.64 59.35,53.13 59.35,53.34C59.35,53.92 68.74,82.15 69.26,83.16C69.5,83.59 70.02,84.29 70.45,84.66C71.43,85.58 72.22,85.36 73.36,83.9L74.19,82.8L74.28,69.01C74.34,59.01 74.25,55 74,54.36C73.79,53.9 73.17,53.11 72.59,52.65C71.7,51.92 71.55,51.61 71.64,50.75L71.73,49.71L97.46,49.71L98.59,50.47C100.24,51.6 100.95,53.22 100.95,56.01C100.92,59.74 99.76,61.88 96.51,64.08C95.59,64.72 94.83,65.33 94.83,65.4C94.83,65.49 95.63,66.81 96.63,68.34C98.83,71.74 100.73,75.56 102.5,79.99C103.54,82.62 104.12,83.63 105.13,84.64C106.11,85.59 106.45,86.14 106.45,86.84L106.45,87.79L92.99,87.79L92.99,86.78C92.99,86.05 93.23,85.53 93.91,84.88C95.16,83.66 95.1,82.8 93.36,79.47C91.59,75.98 87.15,69.13 86.69,69.13C86.23,69.13 83.17,70.38 82.65,70.78C82.31,71.02 82.25,72.28 82.34,76.59C82.43,82.83 82.68,83.59 84.82,85C85.74,85.61 85.95,85.92 85.95,86.77L85.95,87.78L57.81,87.78L57.81,86.77C57.81,86.07 58.05,85.52 58.54,85.06C59.82,83.84 60.28,82.55 59.92,81.18C59.4,79.41 58.82,78.37 57.29,76.74C54.97,74.26 50.65,71.88 48.45,71.88C47.53,71.88 47.04,72.89 45.24,78.76C44.02,82.74 43.99,82.92 44.51,83.68C44.79,84.11 45.49,84.75 46.07,85.09C46.93,85.58 47.11,85.89 47.11,86.71C47.11,87.35 46.93,87.78 46.62,87.9C46.34,87.99 43.74,88.08 40.81,88.08L35.46,88.08L35.67,88.78C48.52,130.19 64.36,167.63 83.2,201.1C105.87,241.35 130.61,269.62 158.2,286.74C159.91,287.81 161.47,288.7 161.63,288.7C161.75,288.73 163.4,287.66 165.3,286.38L165.29,286.39ZM54.14,63.78C53.31,61.27 52.49,59.1 52.34,58.95C52.19,58.8 51.54,60.27 50.78,62.56C50.08,64.67 49.56,66.48 49.62,66.57C49.71,66.63 50.48,66.81 51.36,67C52.22,67.15 53.53,67.55 54.24,67.86C54.94,68.2 55.56,68.41 55.59,68.38C55.65,68.35 54.98,66.3 54.15,63.79L54.14,63.78ZM88.06,62.8C90.9,61.15 92.98,58.73 92.98,57.11C92.98,56.1 91.63,54.82 90.29,54.57C89.13,54.36 84.23,54.6 83.38,54.94C82.49,55.28 82.28,56.44 82.28,61.03L82.28,65.43L84.48,64.51C85.7,64.02 87.32,63.26 88.06,62.8Z" style="fill:rgb(255,254,253);fill-rule:nonzero;"/>
        <path d="M103.69,137.95C101.43,137.46 98.7,135.93 97.14,134.28C92.06,128.84 92.09,118.83 97.17,113.63C98.85,111.92 101.79,110.42 103.44,110.42C104.05,110.42 104.66,110.3 104.76,110.11C105,109.71 108.34,109.71 110.42,110.11C117.85,111.52 122.17,118.49 120.85,126.9C120.12,131.55 117.45,135.13 113.26,137.12C111.39,137.98 110.84,138.1 108.12,138.16C106.44,138.19 104.45,138.1 103.68,137.95L103.69,137.95ZM110.57,132.75C111.89,131.92 113.41,129.75 113.97,127.92C115.41,123.21 112.72,116.82 108.59,115.04C106.3,114.06 104.71,114.43 102.47,116.45C99.38,119.2 99.17,125.17 101.95,129.57C103.14,131.47 104.95,133.06 106.45,133.49C107.98,133.95 108.96,133.77 110.58,132.76L110.57,132.75Z" style="fill:rgb(255,254,253);fill-rule:nonzero;"/>
        <path d="M220.53,137.86C213.92,136.33 209.98,130.27 210.53,122.51C210.93,116.73 214.23,112.2 219.22,110.58C220.44,110.18 221.67,110.09 224.85,110.18C228.55,110.27 229.13,110.36 230.69,111.1C235.71,113.46 238.7,119.24 238.18,125.57C237.69,131.14 234.6,135.48 229.8,137.38C227.66,138.21 223.13,138.45 220.53,137.87L220.53,137.86ZM227.63,132.84C229.56,131.71 231.55,127.79 231.55,125.1C231.55,123.66 230.79,120.82 230.02,119.29C229.1,117.49 227.63,115.96 226.04,115.16C221.24,112.71 216.04,118.34 217.2,124.7C217.93,128.77 220.75,132.65 223.53,133.45C225.09,133.91 226.04,133.76 227.63,132.84Z" style="fill:rgb(255,254,253);fill-rule:nonzero;"/>
        <path d="M87.72,137.79C87.66,137.7 81.63,137.64 74.38,137.64L61.17,137.61L61.17,136.54C61.17,135.74 61.45,135.13 62.09,134.37L63.01,133.33L63.01,114.64L61.91,113.54C61.08,112.71 60.87,112.26 60.93,111.52L61.02,110.57L66.16,110.48L71.27,110.42L71.27,111.58C71.27,112.53 71.12,112.83 70.54,113.17C69.19,113.87 69.1,114.61 69.19,124.46L69.28,133.73L70.17,134.49C70.9,135.1 71.12,135.16 71.42,134.83C71.63,134.62 73.01,132.38 74.48,129.84C75.98,127.33 78.61,122.87 80.35,119.93L83.53,114.61L81.73,114.76C80.75,114.85 79.47,115.19 78.89,115.46C77.57,116.13 75.95,117.66 75.37,118.76C75,119.4 74.7,119.59 73.87,119.59L72.8,119.59L72.8,118.15C72.8,117.32 73.11,115.27 73.47,113.56L74.11,110.41L92.68,110.41L92.68,111.66C92.68,112.52 92.4,113.28 91.79,114.17C91.33,114.87 88.49,119.49 85.52,124.45L80.11,133.41L82.04,133.29C84.43,133.14 86.93,132.01 88.65,130.29C89.75,129.19 90.03,129.07 91.43,129.07C92.9,129.07 92.99,129.13 92.99,129.83C92.99,130.26 92.41,132.28 91.71,134.27L90.39,137.94L89.14,137.94C88.47,137.94 87.82,137.88 87.73,137.79L87.72,137.79Z" style="fill:rgb(255,254,253);fill-rule:nonzero;"/>
        <path d="M130.61,137.64C126.33,137.55 122.78,137.43 122.75,137.4C122.38,137.09 122.81,135.26 123.42,134.46L124.18,133.45L124.18,114.34L123.23,113.45C122.5,112.78 122.31,112.38 122.4,111.58L122.49,110.57L127.48,110.48L132.44,110.42L132.44,111.49C132.44,112.32 132.23,112.77 131.46,113.45L130.45,114.34L130.36,123.12C130.27,133.06 130.33,133.37 132.29,133.37C133.97,133.37 136.57,132.21 138.19,130.74C139.57,129.52 139.87,129.39 141.28,129.39C142.78,129.39 142.84,129.42 142.84,130.25C142.84,130.74 142.56,131.93 142.23,132.91C141.89,133.89 141.65,134.75 141.71,134.81C142.14,135.21 143.42,132.73 144.8,128.91C150.55,112.7 150.31,113.49 149.72,113.1C149.38,112.82 149.23,112.37 149.32,111.66L149.41,110.59L154.7,110.5L159.96,110.44L159.96,111.42C159.96,111.97 159.68,112.67 159.35,113.04L158.74,113.68L162.07,123.59C164.88,132.09 165.5,133.68 166.35,134.54C167.11,135.34 167.33,135.76 167.24,136.53L167.15,137.51L162.19,137.6L157.2,137.66L157.2,136.5C157.2,135.7 157.41,135.12 157.81,134.76C159.22,133.51 157.99,130.51 155.36,128.73C154.44,128.09 153.1,127.38 152.39,127.14C151.14,126.71 151.07,126.71 150.52,127.42C150.21,127.79 149.57,129.41 149.08,130.97L148.22,133.81L149.2,134.64C150.03,135.31 150.18,135.65 150.09,136.48L150,137.52L145.66,137.61C141.29,137.7 141.29,137.67 141.26,137C141.23,136.33 141.23,136.33 141.02,137.06C140.78,137.98 141.42,137.92 130.59,137.67L130.61,137.64ZM155.08,122.74C155.08,122.25 153.73,118.37 153.55,118.37C153.46,118.37 153.09,119.26 152.72,120.3L152.11,122.26L153.36,122.57C155.1,123 155.07,123 155.07,122.75L155.08,122.74Z" style="fill:rgb(255,254,253);fill-rule:nonzero;"/>
        <path d="M167.22,134.16C166.76,132.08 166.39,129.94 166.39,129.42C166.39,128.5 166.42,128.47 167.86,128.47C169.18,128.47 169.36,128.56 170.03,129.54C170.92,130.86 172.69,132.29 174.16,132.9C176.48,133.88 179.6,133.18 181.04,131.34C183.06,128.77 181.56,126.72 176.48,125.22C169.66,123.17 168.31,122.47 167.43,120.3C166.76,118.77 166.88,115.22 167.61,113.75C168.37,112.31 170.15,110.94 172.01,110.42C173.33,110.05 178.98,110.14 182.75,110.6L184.28,110.78L184.98,114.48C185.9,119.44 185.9,119.28 184.46,119.28C183.42,119.28 183.18,119.13 182.62,118.3C180.45,114.75 176.29,113.28 174.03,115.21L173.02,116.04L173.85,116.74C174.31,117.11 176.57,118.02 179.02,118.82C183.94,120.38 185.87,121.42 187.09,123.29C187.85,124.45 187.95,124.91 188.04,127.54C188.13,130.05 188.04,130.75 187.49,132.04C186.69,133.94 184.83,135.8 182.6,136.93C181.1,137.69 180.55,137.79 177.34,137.88C174.83,137.97 173.3,137.85 172.23,137.54C170.95,137.17 170.67,137.17 170.55,137.51C170.46,137.79 169.94,137.94 169.2,137.94L168.04,137.94L167.21,134.15L167.22,134.16Z" style="fill:rgb(255,254,253);fill-rule:nonzero;"/>
        <path d="M194.23,136.57C194.23,135.87 194.51,135.1 194.99,134.46C195.72,133.51 195.75,133.24 195.75,129.5L195.75,125.52L192.63,120.5C190.89,117.72 188.81,114.78 188.01,113.92C186.82,112.7 186.57,112.21 186.63,111.47L186.72,110.55L192.16,110.46L197.57,110.4L197.57,111.47C197.57,112.2 197.39,112.66 196.96,112.91C196.62,113.12 196.35,113.43 196.35,113.58C196.35,113.95 199.38,119.21 199.71,119.42C199.83,119.51 200.75,118.26 201.7,116.67C203.38,113.89 203.44,113.73 202.95,113.18C202.61,112.81 202.46,112.23 202.52,111.56L202.61,110.55L206.98,110.46L211.32,110.37L211.32,111.44C211.32,112.27 211.11,112.63 210.22,113.31C209.15,114.14 206.24,118.33 203.4,123.16C202.12,125.3 202.08,125.52 201.93,128.51C201.72,132.43 202.11,134.02 203.4,134.78C204.16,135.24 204.29,135.48 204.23,136.4L204.14,137.47L199.18,137.56L194.19,137.62L194.19,136.55L194.23,136.57Z" style="fill:rgb(255,254,253);fill-rule:nonzero;"/>
        <path d="M240.66,137.43C239.56,137.31 239.5,137.25 239.5,136.3C239.5,135.72 239.71,135.08 240.02,134.86C241.21,133.85 241.34,132.78 241.34,123.6L241.34,114.76L240.54,113.81C239.96,113.11 239.78,112.62 239.87,111.73L239.96,110.57L245.25,110.48L250.51,110.42L250.51,111.37C250.51,112.35 250.69,112.56 255.68,117.03L257.03,118.22L256.88,116.32C256.79,114.88 256.57,114.21 256.05,113.66C255.53,113.11 255.38,112.65 255.47,111.76L255.56,110.57L259.78,110.48L263.97,110.39L263.97,111.43C263.97,112.19 263.69,112.71 262.9,113.48L261.83,114.52L261.83,133.45L262.9,134.46C263.73,135.22 263.97,135.68 263.97,136.57L263.97,137.67L259.63,137.58L255.26,137.49L255.17,136.48C255.08,135.72 255.29,135.23 256,134.4C256.92,133.39 256.95,133.24 256.95,130.45C256.95,128.89 256.86,127.39 256.77,127.12C256.62,126.75 250.96,121.61 246.89,118.22L245.94,117.39L245.94,133.44L247.01,134.45C247.84,135.21 248.08,135.7 248.08,136.53L248.08,137.63L244.96,137.57C243.22,137.54 241.29,137.48 240.68,137.42L240.66,137.43Z" style="fill:rgb(255,254,253);fill-rule:nonzero;"/>
        <path d="M64.32,108.83C63.07,108.22 62.64,105.04 63.65,103.81C64.11,103.26 68.21,103.2 68.76,103.75C68.97,103.96 69.13,104.94 69.13,106.04C69.13,108.52 68.55,109.19 66.47,109.16C65.64,109.16 64.7,109.01 64.33,108.82L64.32,108.83Z" style="fill:rgb(255,254,253);fill-rule:nonzero;"/>
        <path d="M208.15,88.24C207.42,87.9 204.69,87.81 194.94,87.78L182.61,87.78L182.61,86.83C182.61,86.1 182.92,85.58 183.96,84.6C184.82,83.8 185.43,82.92 185.64,82.12C186.07,80.53 186.1,56.58 185.67,55.02C185.49,54.44 185.03,53.61 184.6,53.22C183.74,52.42 183.53,50.5 184.23,49.92C184.47,49.71 188.6,49.55 195.61,49.43C201.67,49.34 207.42,49.19 208.4,49.09C209.93,48.91 210.14,48.94 210.14,49.4C210.14,49.71 210.69,52.34 211.39,55.24C212.06,58.15 212.58,60.84 212.52,61.24C212.43,61.85 212.24,61.94 211.2,61.94C210.1,61.94 209.95,61.82 209.36,60.72C208.53,59.04 206.27,56.87 204.62,56.07C200.74,54.17 195.23,53.87 194.16,55.49C194.04,55.67 193.92,56.68 193.92,57.75L193.92,59.65L196.46,59.65C199.12,59.65 200.41,59.22 201.17,58.12C201.48,57.66 201.97,57.51 202.94,57.51C204.26,57.51 204.26,57.51 204.47,58.83C204.59,59.53 205.02,62.01 205.42,64.34C206.4,69.72 206.37,70.18 204.87,70.3C203.8,70.39 203.74,70.33 202.76,68.53C202.21,67.49 201.32,66.33 200.83,65.93C199.64,65.01 197.53,64.49 195.6,64.61L194.07,64.7L193.98,72.38C193.95,76.94 194.04,80.39 194.22,80.88C194.37,81.31 194.95,81.95 195.5,82.32C196.36,82.84 196.88,82.93 198.96,82.81C203.24,82.6 207.37,80.42 210.25,76.91C211.78,75.01 211.84,74.95 213.28,74.95L214.72,74.95L214.72,76.17C214.72,76.84 213.89,79.93 212.88,83.05L211.01,88.71L210.03,88.68C209.48,88.68 208.65,88.47 208.13,88.25L208.15,88.24Z" style="fill:rgb(255,254,253);fill-rule:nonzero;"/>
        <path d="M231.09,87.91C229.93,87.67 227.79,86.87 226.35,86.2C221.27,83.75 216.96,78.25 215.8,72.65C214.73,67.51 215.43,60.48 217.39,56.81C218.49,54.73 221.55,51.67 223.48,50.69C226.63,49.1 228.22,48.82 234.15,48.82C237.18,48.85 240.94,48.91 242.53,48.97L245.41,49.09L246.27,53.37C246.73,55.73 247.13,58.29 247.13,59.12L247.16,60.56L246,60.56C244.9,60.56 244.75,60.47 244.26,59.34C242.61,55.64 237.71,53.34 233.13,54.14C228.57,54.9 225.42,58.09 224.08,63.22C222.83,68.02 224.57,74.51 228.12,78.33C233.96,84.63 242.04,84.88 246.75,78.91C247.88,77.5 248.03,77.41 249.41,77.38L250.85,77.38L250.85,78.54C250.85,79.21 250.15,81.48 249.2,83.95L247.52,88.23L240.39,88.29C235.01,88.32 232.74,88.23 231.12,87.89L231.09,87.91Z" style="fill:rgb(255,254,253);fill-rule:nonzero;"/>
        <path d="M257.94,87.88L252.34,87.79L252.34,86.81C252.34,86.08 252.65,85.49 253.59,84.55C254.48,83.63 254.94,82.87 255.12,81.92C255.49,80.02 255.46,56.38 255.09,55.03C254.91,54.45 254.45,53.62 254.02,53.23C253.47,52.71 253.26,52.19 253.26,51.36C253.26,50.72 253.35,50.14 253.5,50.08C253.62,49.99 256.65,49.84 260.23,49.71L266.71,49.5L266.71,50.57C266.71,51.52 266.56,51.73 265.33,52.44C263.65,53.45 263.43,53.85 263.16,56.36C262.82,59.82 262.55,59.69 270.16,59.6L276.64,59.51L276.61,57.22C276.61,54.62 276,53.12 274.77,52.57C274.1,52.26 274.01,52.05 274.1,50.98L274.19,49.73L281.16,49.64L288.1,49.58L288.1,50.62C288.1,51.54 287.95,51.78 286.94,52.33C284.52,53.71 284.58,53.22 284.58,68.54L284.58,82.15L285.28,83.28C285.68,83.89 286.47,84.72 287.05,85.05C287.91,85.6 288.09,85.91 288.09,86.76L288.09,87.8L273.71,87.8L273.71,86.82C273.71,86.09 274.02,85.5 274.96,84.56C275.72,83.8 276.31,82.85 276.49,82.11C276.61,81.44 276.77,77.25 276.77,72.72L276.77,64.55L269.98,64.61L263.16,64.7L263.16,73.42C263.16,81.65 263.19,82.2 263.77,83.21C264.14,83.79 264.93,84.62 265.54,85.01C266.58,85.68 266.7,85.9 266.61,86.85C266.52,88.13 267.25,88.04 257.89,87.89L257.94,87.88Z" style="fill:rgb(255,254,253);fill-rule:nonzero;"/>
        <path d="M112.25,86.81C112.25,86.08 112.56,85.49 113.47,84.58C114.45,83.57 114.75,82.99 115.03,81.52C115.4,79.44 115.31,55.28 114.91,54.88C114.54,54.48 110.99,55.34 109.37,56.23C107.63,57.18 105.7,59.29 105.21,60.76C104.87,61.77 104.78,61.83 103.59,61.74C102.37,61.65 102.31,61.59 102.24,60.58C102.18,60 102.73,57.25 103.46,54.46L104.74,49.41L117.16,49.53C126.31,49.62 129.64,49.56 129.79,49.29C129.91,49.11 130.74,48.95 131.66,48.95C133.22,48.95 133.34,49.01 133.5,49.81C133.62,50.27 134.17,52.53 134.75,54.86C135.33,57.18 135.79,59.72 135.79,60.46L135.79,61.81L134.57,61.81C133.44,61.81 133.32,61.72 132.61,60.31C131.14,57.43 127.47,54.96 124.29,54.71L123.1,54.62L123.1,82.17L123.9,83.39C124.33,84.06 125.22,84.86 125.83,85.19C126.75,85.68 126.93,85.95 126.93,86.78L126.93,87.79L112.25,87.79L112.25,86.81Z" style="fill:rgb(255,254,253);fill-rule:nonzero;"/>
        <path d="M159.66,86.78C159.66,86.05 159.9,85.53 160.58,84.88C162.45,83.11 162.42,83.35 162.42,68.36L162.42,54.66L160.83,54.87C157.31,55.33 154.25,57.44 152.94,60.28C152.24,61.75 152.18,61.78 150.89,61.78L149.57,61.78L149.6,60.5C149.6,59.77 150.18,56.92 150.92,54.14L152.24,49.09L155.12,49.24C159.62,49.48 176.44,49.39 178.7,49.12C180.69,48.88 180.75,48.88 180.9,49.58C180.99,49.98 181.54,52.39 182.15,54.96C182.73,57.5 183.22,60.1 183.22,60.68C183.22,61.78 183.22,61.78 181.9,61.78C180.65,61.78 180.58,61.72 179.88,60.25C178.5,57.34 175.35,55.17 171.96,54.84L170.34,54.66L170.43,68.61C170.52,82.16 170.55,82.56 171.16,83.41C171.5,83.87 172.29,84.6 172.9,85C173.82,85.61 174.03,85.92 174.03,86.77L174.03,87.78L159.65,87.78L159.65,86.77L159.66,86.78Z" style="fill:rgb(255,254,253);fill-rule:nonzero;"/>
    </g>
    <g>
        <path d="M164.83,244.09C163.21,243.97 160.67,243.69 159.23,243.48L156.57,243.08L156.75,240.58L161.95,240.4C178.9,239.73 195.81,231.84 204.1,220.7C210.13,212.59 211.47,203.08 207.77,194.73C206.61,192.13 205.14,189.68 203.37,187.36C202.24,185.86 201.87,185.13 201.87,184.3C201.87,183.26 201.9,183.23 203.03,183.23C205.51,183.23 212.14,188.92 216.03,194.39C219.49,199.25 221.11,203.99 221.35,209.99C221.72,218.34 219.3,224.37 213.21,230.33C207.31,236.11 198.8,240.33 188.1,242.72C181.16,244.31 173.45,244.74 164.82,244.1L164.83,244.09Z" style="fill:rgb(248,186,62);fill-rule:nonzero;"/>
        <path d="M159.97,235.7C159.97,235.12 160.18,234.51 160.46,234.26C160.92,233.86 164.8,232.15 165.2,232.15C165.29,232.15 166.55,231.51 167.95,230.71C177.1,225.6 182.94,217.16 181.68,210.86C179.63,200.71 166.69,191.96 147.85,187.98C130.11,184.25 108.97,186.57 93.65,193.94C91.26,195.1 88.94,196.05 88.54,196.05C87.87,196.05 87.78,195.9 87.78,195.04C87.78,194.24 88.09,193.72 89.4,192.47C90.84,191.09 94.51,188.4 94.97,188.4C95.09,188.4 95.61,188.06 96.13,187.67C98.52,185.83 106.87,182.5 112.95,180.91C123.29,178.25 126.74,177.88 142.07,177.88C156.08,177.85 158.01,178 166.85,179.99C185.51,184.18 198.42,192.41 201.57,202.2C202.21,204.1 202.33,205.04 202.3,208.13C202.27,212.32 201.72,214.43 199.79,217.61C198.63,219.57 193.03,225.32 191.59,226.08C191.1,226.36 189.39,227.33 187.77,228.25C182.42,231.37 176.91,233.48 168.87,235.53C165.66,236.36 163.49,236.72 162.05,236.72L159.97,236.72L159.97,235.68L159.97,235.7Z" style="fill:rgb(248,186,62);fill-rule:nonzero;"/>
    </g>
    <g>
        <path d="M151.01,301.25C117.82,279.87 85.95,239.83 58.79,185.36C49.37,166.52 42.18,150.09 33.89,128.62C22.88,99.99 15.6,76.93 4.86,36.71L4.19,34.11L15.78,22.7C22.14,16.43 30,8.75 33.21,5.63L39.05,0L162.22,0C236.24,0 285.33,0.12 285.24,0.28C285.12,0.43 288.45,3.77 292.61,7.68C306.34,20.62 311.48,25.45 314.33,28.23L317.17,30.98L315.15,39.73C296.98,118.83 269.54,184.04 232.66,235.67C221.56,251.21 210.82,263.9 197.91,276.81C187.66,287.06 180.32,293.42 171.21,300.03C169.07,301.56 167.23,302.97 167.14,303.12C167.02,303.3 164.45,303.43 160.62,303.4L154.29,303.4L150.99,301.26L151.01,301.25ZM165.29,289.35C191.75,271.92 219.12,241.7 240.66,206.09C257.12,178.9 270.91,149.29 282.17,116.99C289.08,97.14 296.33,71.38 301.44,48.54C302.02,45.85 302.51,43.52 302.51,43.31C302.51,43 290.67,31.69 275.38,17.37L273.18,15.29L172.76,15.29C117.52,15.29 67.72,15.38 62.07,15.5L51.79,15.68L36.47,30.85L21.12,46.02L22.5,51.37C32.81,91.41 45.87,129.31 60.43,161.48C64.83,171.21 65.17,171.88 69.36,180.32C96.4,234.52 124.91,269.54 158.15,289.55C159.92,290.62 161.51,291.48 161.73,291.48C161.91,291.48 163.53,290.53 165.31,289.34L165.29,289.35Z" style="fill:rgb(159,10,17);fill-rule:nonzero;"/>
        <path d="M157.92,288.04C119.87,264.95 86.44,219.28 56.55,149.54C44.47,121.34 31.19,81.39 23.55,50.28L22.57,46.27L33.52,35.44C39.58,29.48 46.24,22.93 48.35,20.85L52.2,17.12L160.33,17.12C219.79,17.12 269.46,17.03 270.72,16.94L272.98,16.79L284.14,27.25C290.29,33.03 296.65,39.06 298.3,40.68L301.27,43.59L299.92,49.55C285.57,112.22 265.66,163.15 237.89,208.17C224.55,229.8 209.78,248.48 193.26,264.73C183.66,274.15 175.83,280.7 166.22,287.27C161.26,290.67 162.12,290.57 157.9,288.03L157.92,288.04ZM180.37,243.02C190.46,241.67 200.31,238.28 207.01,233.78C212.21,230.29 216.89,224.88 218.79,220.14C223.13,209.28 219,196.8 208.05,187.72C205.24,185.4 203.16,183.99 202.88,184.23C202.79,184.35 203.19,185.03 203.77,185.73C212.76,196.86 213.25,210.54 205.02,221.61C196.73,232.74 179.82,240.64 162.9,241.31C156.94,241.52 156.05,241.95 160.15,242.56C166.6,243.51 175.05,243.69 180.37,243.02ZM167.95,234.64C175.99,232.59 181.5,230.48 186.85,227.36C188.47,226.44 190.18,225.46 190.67,225.19C192.11,224.43 197.71,218.67 198.87,216.72C200.64,213.75 201.32,211.37 201.35,208C201.35,202.86 199.3,198.67 194.59,194.17C187.22,187.13 174.74,182.12 158.13,179.46C154.4,178.85 152.87,178.79 142.07,178.82C127.76,178.82 124.05,179.22 113.87,181.85C107.78,183.44 99.43,186.77 97.05,188.61C96.53,189.01 96.01,189.34 95.89,189.34C95.43,189.34 91.18,192.46 90.02,193.68L88.74,195L92.62,193.1C100.51,189.25 110.61,186.62 121.04,185.7C126.48,185.21 136.21,185.27 141.01,185.85C154.59,187.41 166.67,191.78 174.32,197.9C182.95,204.81 185.15,213.16 180.41,221.09C179.16,223.2 175.82,226.81 173.34,228.74C171.66,230.06 166.61,233.08 166.12,233.08C165.6,233.08 161.68,234.88 161.26,235.34C160.8,235.8 160.86,235.83 161.99,235.83C162.69,235.83 165.35,235.28 167.95,234.64ZM112.37,136.18C116.47,134.25 119.19,130.67 119.89,126.18C120.84,120.28 117.81,114.4 112.61,112.02C110.47,111.04 106.65,110.46 105.82,110.98C105.48,111.19 104.78,111.35 104.23,111.35C102.7,111.35 99.73,112.91 98.08,114.56C94.23,118.51 93.28,124.65 95.72,129.91C98.63,136.18 106.24,139.06 112.36,136.18L112.37,136.18ZM228.88,136.46C234.78,134.17 238.24,127.74 236.92,121.5C236.03,117.19 233.4,113.7 229.76,112.02C228.17,111.26 227.71,111.19 224.19,111.19C220.55,111.19 220.27,111.22 218.56,112.11C213.54,114.65 210.67,120.4 211.62,126.09C212.54,131.6 216.3,135.76 221.44,136.95C223.73,137.47 226.73,137.29 228.87,136.46L228.88,136.46ZM90.72,133.52C91.88,130.25 91.91,130 91.36,130C91.02,130 90.23,130.55 89.56,131.22C88.89,131.89 87.57,132.81 86.62,133.27C85.12,134 84.42,134.13 81.76,134.22C79.22,134.31 78.61,134.25 78.61,133.91C78.61,133.51 89.68,114.95 91.12,112.93C91.46,112.41 91.76,111.86 91.76,111.68C91.76,111.44 89.25,111.34 83.41,111.34L75.03,111.34L74.39,114.49C74.02,116.2 73.72,117.89 73.72,118.22C73.75,118.83 73.75,118.83 74.12,118.25C74.95,116.9 76.66,115.22 77.82,114.61C78.8,114.12 79.78,113.94 82.22,113.85C83.93,113.79 85.34,113.79 85.34,113.88C85.34,113.97 82.37,119.02 78.73,125.14C75.12,131.23 72.28,136.33 72.4,136.46C72.55,136.61 76.32,136.77 80.75,136.83C85.22,136.86 89.01,136.92 89.16,136.98C89.34,137.01 90.02,135.45 90.72,133.52ZM139.9,136.67C139.96,136.46 140.42,134.93 140.94,133.31C141.83,130.43 141.83,130.31 141.25,130.31C140.91,130.31 139.97,130.92 139.11,131.66C137.21,133.4 134.89,134.29 132.29,134.29C129.23,134.29 129.35,134.72 129.45,123.13L129.54,113.43L130.55,112.54C131.07,112.05 131.53,111.59 131.53,111.5C131.53,111.29 123.73,111.32 123.49,111.53C123.4,111.65 123.7,112.11 124.19,112.57L125.11,113.43L125.11,134.38L124.31,135.42C123.88,135.97 123.58,136.46 123.64,136.49C123.7,136.52 127.25,136.64 131.53,136.73C135.81,136.82 139.45,136.94 139.57,136.97C139.69,137 139.85,136.85 139.91,136.66L139.9,136.67ZM169.63,136.58C169.87,136 170.91,136 173.03,136.61C175.66,137.37 179.55,137.1 181.69,136.03C185.42,134.1 187.35,131.14 187.13,127.56C186.92,123.55 185.02,121.93 178.05,119.73C174.75,118.69 173.4,118.11 172.76,117.47C171.66,116.34 171.69,115.79 172.94,114.53C173.95,113.52 174.07,113.49 176.3,113.49C179.76,113.49 181.84,114.62 183.55,117.41C183.92,117.93 184.28,118.39 184.41,118.39C184.53,118.39 184.35,116.89 184.01,115.06L183.37,111.73L181.84,111.55C177.68,111.06 174.25,111 172.94,111.37C167.92,112.78 166.24,118.19 169.85,121.37C170.89,122.29 172.02,122.72 177.41,124.34C180.53,125.26 182.03,126.24 182.76,127.74C183.71,129.82 182.61,132.33 180.16,133.7C179.03,134.31 178.39,134.43 176.64,134.43C173.46,134.37 170.83,133.02 169.12,130.48C168.26,129.26 167.13,128.98 167.44,130.11C167.53,130.48 167.93,132.19 168.3,133.93C168.91,136.93 169.28,137.6 169.65,136.59L169.63,136.58ZM70.13,136.52C70.25,136.43 69.89,135.94 69.37,135.48L68.36,134.65L68.27,124.46C68.18,113.63 68.24,112.96 69.62,112.26C70.02,112.02 70.35,111.74 70.35,111.59C70.35,111.31 62.31,111.22 62.03,111.5C61.94,111.59 62.34,112.14 62.89,112.69L63.93,113.73L63.93,134.26L63.01,135.3C62.52,135.88 62.09,136.43 62.09,136.55C62.09,136.79 69.89,136.79 70.13,136.52ZM149.08,136.49C149.17,136.34 148.84,135.91 148.35,135.54C147.59,134.99 147.43,134.65 147.43,133.67C147.43,132.02 149.11,126.88 149.88,126.18C150.68,125.45 152.42,125.69 154.71,126.85C157.22,128.1 158.59,129.54 159.18,131.5C159.85,133.76 159.79,134.38 158.9,135.45C158.47,135.97 158.14,136.46 158.14,136.55C158.14,136.79 165.94,136.79 166.18,136.55C166.27,136.46 165.9,135.94 165.38,135.39C164.55,134.53 163.91,132.88 160.91,123.8L157.39,113.19L159.17,111.35L154.83,111.35C150.61,111.35 149.54,111.59 150.79,112.27C151.13,112.45 151.4,112.85 151.4,113.16C151.4,113.5 150.51,116.19 149.47,119.22C148.4,122.22 146.78,126.81 145.86,129.41C144.67,132.87 143.93,134.46 143.23,135.25C142.68,135.86 142.22,136.44 142.22,136.57C142.22,136.85 148.89,136.78 149.07,136.51L149.08,136.49ZM203.22,136.49C203.31,136.34 202.98,136 202.49,135.69C201.17,134.93 200.87,133.37 201.02,128.59L201.14,124.55L202.49,122.32C205.37,117.46 208.24,113.27 209.4,112.35L210.59,111.37L207.16,111.34C205.29,111.34 203.67,111.46 203.58,111.62C203.49,111.74 203.67,112.11 204.01,112.42C204.84,113.18 204.77,113.92 203.7,115.85C202.08,118.73 200.03,121.75 199.75,121.75C199.29,121.75 195.13,114.35 195.13,113.52C195.13,113.06 195.47,112.48 195.99,112.05L196.82,111.38L192.35,111.35C189.9,111.35 187.82,111.41 187.73,111.5C187.67,111.59 188.22,112.3 188.98,113.12C189.74,113.92 191.79,116.82 193.54,119.6L196.66,124.62L196.66,129.51C196.66,134.22 196.63,134.4 195.9,135.38C195.47,135.93 195.14,136.45 195.14,136.54C195.14,136.82 203.03,136.75 203.21,136.48L203.22,136.49ZM247.14,136.55C247.14,136.46 246.65,135.94 246.07,135.39L245,134.38L245,125.14C245,114.28 244.79,114.71 248.61,117.98C255.28,123.79 257.51,125.81 257.66,126.21C257.75,126.49 257.84,128.38 257.84,130.46C257.84,134.25 257.84,134.25 256.92,135.29C256.43,135.87 256.09,136.42 256.22,136.54C256.46,136.75 263.04,136.78 263.04,136.54C263.04,136.45 262.55,135.93 261.97,135.38L260.9,134.37L260.9,113.66L263.16,111.34L259.92,111.34C257.93,111.34 256.59,111.46 256.46,111.68C256.34,111.86 256.58,112.35 256.95,112.78C257.62,113.45 257.68,113.85 257.78,116.88C257.87,119.14 257.78,120.21 257.57,120.21C257.39,120.21 255.61,118.74 253.62,116.97C248.45,112.26 248.85,112.75 249.25,111.98C249.62,111.34 249.59,111.34 245.33,111.34C242.76,111.34 240.99,111.46 240.86,111.65C240.74,111.83 241.01,112.38 241.44,112.9L242.24,113.85L242.24,123.61C242.24,133.83 242.15,134.77 240.86,135.81C240.34,136.24 240.37,136.27 241.5,136.45C243.09,136.69 247.13,136.76 247.13,136.54L247.14,136.55ZM67.59,107.68C68.32,106.95 68.42,105.17 67.77,104.65C67.53,104.44 66.73,104.31 66,104.37C64.99,104.43 64.62,104.61 64.35,105.2C63.34,107.19 66.03,109.24 67.59,107.68ZM211.96,82.14C212.97,79.02 213.8,76.33 213.8,76.18C213.8,75.32 212.55,76.12 211.17,77.83C209.43,79.97 206.73,81.9 204.07,82.94C202.75,83.46 201.5,83.64 198.96,83.74C195.96,83.86 195.47,83.8 194.59,83.25C194.04,82.88 193.46,82.24 193.31,81.81C193.13,81.32 193.03,77.56 193.07,72.39L193.16,63.8L195.61,63.71C200.11,63.53 202,64.44 203.68,67.63C204.23,68.67 204.81,69.4 204.93,69.25C205.08,69.13 204.87,67.29 204.5,65.18C204.1,63.07 203.7,60.71 203.58,59.92C203.34,58.33 202.82,58.02 202.08,59.06C201.25,60.25 200.06,60.59 196.45,60.59L192.99,60.59L192.99,57.78C192.99,56.22 193.11,54.78 193.23,54.6C193.72,53.84 194.91,53.56 197.63,53.56C200.69,53.56 203.29,54.08 205.52,55.18C207.08,55.91 209.44,58.15 210.11,59.52C211.58,62.58 211.67,61.45 210.39,55.94C209.75,53.19 209.2,50.71 209.2,50.37C209.2,49.91 209.05,49.85 208.37,50.03C207.88,50.15 202.53,50.34 196.44,50.4C187.2,50.52 185.31,50.61 185,50.98C184.69,51.35 184.79,51.59 185.46,52.3C185.89,52.76 186.41,53.62 186.56,54.2C186.99,55.67 186.96,81.51 186.53,83.07C186.32,83.87 185.7,84.75 184.82,85.61L183.41,86.89L195.77,86.89C205.59,86.92 208.31,87.01 209.04,87.35C209.56,87.56 209.99,87.78 210.02,87.78C210.05,87.81 210.91,85.27 211.95,82.15L211.96,82.14ZM248.24,83.03C249.16,80.71 249.89,78.69 249.89,78.56C249.89,78.44 249.61,78.32 249.28,78.32C248.94,78.32 248.67,78.44 248.67,78.56C248.67,78.68 247.91,79.6 246.99,80.55C240.69,87.19 229.19,84.68 224.81,75.75C223.22,72.51 222.67,70.24 222.67,66.85C222.67,62.54 223.8,59.14 226.13,56.45C227.66,54.68 229.83,53.61 232.74,53.18C238.31,52.35 243.38,54.53 245.16,58.44C245.74,59.72 246.23,60.03 246.2,59.14C246.2,58.83 245.8,56.66 245.34,54.31L244.48,50.03L241.3,49.91C231.11,49.48 227.96,49.82 224.39,51.62C222.46,52.6 219.4,55.66 218.3,57.74C216.37,61.35 215.73,67.07 216.71,71.75C217.87,77.35 222.19,82.85 227.26,85.3C231.27,87.23 233.07,87.5 240.38,87.38L246.62,87.26L248.24,83.04L248.24,83.03ZM45.85,86.91C46.19,86.7 46.06,86.51 45.33,86.15C43.95,85.45 43.13,84.22 43.13,82.91C43.13,81.72 45.15,74.8 46.19,72.36L46.77,70.98L48.45,70.98C53.8,70.98 60.1,76.09 61.02,81.17C61.36,82.88 60.99,84.2 59.77,85.61L58.67,86.89L71.12,86.89L69.96,85.94C69.32,85.42 68.61,84.62 68.37,84.14C67.67,82.79 58.12,53.86 58.12,53.06C58.12,52.63 58.55,51.99 59.28,51.41L60.41,50.43L54.63,50.58C48.54,50.73 47.81,50.92 48.79,51.99C49.52,52.82 49.37,53.37 46.8,60.43C45.64,63.64 43.44,69.76 41.91,74.04C38.76,82.82 37.96,84.44 36.34,85.75C35.7,86.24 35.27,86.79 35.36,86.91C35.57,87.28 45.3,87.25 45.85,86.91ZM265.62,86.91C265.71,86.79 265.28,86.33 264.67,85.93C264.03,85.53 263.26,84.71 262.9,84.13C262.32,83.12 262.29,82.57 262.29,73.42L262.29,63.79L270.03,63.7L277.74,63.64L277.74,72.72C277.74,77.74 277.59,82.35 277.46,83.03C277.28,83.76 276.7,84.71 275.87,85.54L274.55,86.89L280.88,86.89C284.37,86.89 287.21,86.83 287.21,86.77C287.21,86.71 286.72,86.34 286.17,85.97C285.59,85.63 284.79,84.81 284.4,84.2L283.7,83.07L283.7,68.54C283.7,52.15 283.61,52.82 286.12,51.35L287.37,50.65L281.44,50.56C277.25,50.5 275.38,50.59 275.17,50.84C274.93,51.08 274.96,51.24 275.26,51.36C276.97,51.97 277.8,54.2 277.68,57.94L277.59,60.45L270.19,60.54C262.82,60.6 262.79,60.6 262.42,59.93C261.99,59.13 262.24,53.97 262.73,52.99C262.91,52.65 263.71,52.01 264.44,51.55C265.2,51.12 265.82,50.69 265.82,50.63C265.82,50.35 254.66,50.87 254.38,51.15C254.2,51.3 254.41,51.76 254.9,52.28C255.36,52.77 255.88,53.63 256.03,54.21C256.4,55.49 256.43,81 256.06,82.87C255.88,83.85 255.42,84.58 254.47,85.56L253.15,86.91L258.81,87C261.9,87.03 264.68,87.09 264.96,87.15C265.24,87.18 265.54,87.09 265.63,86.94L265.62,86.91ZM84.57,86.48C83.29,85.68 82.03,84.19 81.69,83.05C81.2,81.28 81.23,70.2 81.75,69.84C82.42,69.32 86.22,67.91 86.98,67.91C87.59,67.91 88.17,68.64 90.38,71.98C94.02,77.55 95.76,81.16 95.82,83.14C95.88,84.52 95.76,84.82 94.84,85.77L93.77,86.87L105.57,86.87L104.22,85.59C103.18,84.55 102.6,83.57 101.56,80.91C99.66,76.11 97.61,72.16 95.11,68.4C93.89,66.6 93.03,65 93.15,64.88C93.3,64.76 94.34,64.02 95.44,63.23C98.59,61.03 99.97,58.86 100,56.01C100,54.21 99.05,52.34 97.64,51.39L96.51,50.63L84.89,50.54C78.5,50.51 73.05,50.54 72.81,50.63C72.44,50.78 72.57,51 73.33,51.58C75.29,53.11 75.23,52.68 75.23,68.49C75.23,77.79 75.11,83.14 74.89,83.69C74.74,84.18 74,85.07 73.33,85.71L72.08,86.87L78.63,86.84C83.83,86.84 85.05,86.75 84.56,86.47L84.57,86.48ZM124.88,86.11C124.18,85.68 123.29,84.83 122.89,84.18L122.19,83.05L122.19,53.69L124.18,53.75C128.06,53.84 131.89,56.14 133.54,59.38C134.27,60.85 134.89,61.31 134.89,60.45C134.89,60.21 134.43,58.09 133.85,55.77C133.27,53.45 132.72,51.18 132.6,50.72C132.48,50.08 132.26,49.86 131.68,49.86C131.28,49.86 130.85,50.01 130.73,50.2C130.58,50.48 127.15,50.54 118.1,50.44L105.68,50.32L104.4,55.37C103.73,58.15 103.21,60.51 103.3,60.66C103.58,61.15 103.97,60.84 104.31,59.83C104.49,59.25 105.17,58.18 105.81,57.44C107.71,55.3 110.12,54.23 114.44,53.68L115.85,53.5L116.03,56.31C116.37,60.81 116.27,80.81 115.94,82.61C115.7,83.89 115.36,84.54 114.35,85.55L113.07,86.87L126.2,86.87L124.92,86.11L124.88,86.11ZM172.69,86.48C171.28,85.59 170.24,84.52 169.88,83.6C169.54,82.8 169.45,79.68 169.45,68.18L169.45,53.74L171.99,53.89C174.99,54.07 176.82,54.81 178.72,56.58C179.45,57.25 180.4,58.51 180.8,59.33C181.2,60.19 181.69,60.86 181.9,60.86C182.42,60.86 182.45,61.2 181.23,55.87C180.62,53.3 180.07,50.88 179.98,50.49C179.86,49.85 179.74,49.82 178.7,50.03C177.51,50.34 158.42,50.4 155.12,50.15L153.16,50L152,54.44C150.47,60.37 150.38,60.86 150.9,60.86C151.11,60.86 151.63,60.19 152.03,59.36C153.53,56.15 156.71,54.19 160.93,53.92L163.35,53.74L163.35,68.3C163.35,76.8 163.23,83.17 163.04,83.62C162.89,84.05 162.24,84.94 161.63,85.61L160.53,86.86L166.89,86.83C171.97,86.83 173.16,86.74 172.7,86.46L172.69,86.48Z" style="fill:rgb(159,10,17);fill-rule:nonzero;"/>
        <path d="M105.53,134.43C101.86,133.27 99.11,128.47 99.01,123.11C98.92,117.36 101.33,114 105.89,113.57C110.08,113.2 113.26,115.86 114.82,121.09C115.43,123.14 115.46,126.96 114.88,128.83C113.56,133.27 109.47,135.71 105.52,134.43L105.53,134.43Z" style="fill:rgb(159,10,17);fill-rule:nonzero;"/>
        <path d="M222.61,134.43C219.73,133.51 217.01,129.66 216.25,125.41C215.55,121.59 216.59,117.43 218.7,115.53C220.32,114.03 220.72,113.88 223.17,113.63C225.1,113.42 225.46,113.48 226.87,114.18C230.3,115.92 232.47,120.14 232.47,125.1C232.47,131.77 227.88,136.11 222.62,134.43L222.61,134.43Z" style="fill:rgb(159,10,17);fill-rule:nonzero;"/>
        <path d="M155.23,124.46C154.22,123.97 152.87,123.48 152.23,123.39C151.62,123.27 151.01,123.05 150.91,122.9C150.82,122.75 151.25,121.13 151.89,119.26C153.45,114.64 153.66,114.7 155.65,120.58C156.51,123.12 157.18,125.23 157.15,125.26C157.09,125.29 156.23,124.92 155.22,124.46L155.23,124.46Z" style="fill:rgb(159,10,17);fill-rule:nonzero;"/>
        <path d="M54.57,69.4C53.13,68.7 51.24,68.02 50.07,67.84C48.94,67.66 48.02,67.35 48.05,67.17C48.05,66.99 48.85,64.57 49.79,61.79C51.26,57.54 51.63,56.74 52.18,56.65C52.58,56.59 52.91,56.77 53.07,57.11C53.56,58.36 57.51,70.17 57.51,70.42C57.51,70.79 57.23,70.7 54.57,69.41L54.57,69.4Z" style="fill:rgb(159,10,17);fill-rule:nonzero;"/>
        <path d="M81.36,61.2C81.36,55.51 81.54,54.38 82.49,53.98C82.8,53.86 84.85,53.7 87.05,53.61C90.41,53.46 91.21,53.52 92.13,53.95C93.29,54.5 94.21,55.97 94.21,57.25C94.18,59.21 91.95,61.96 88.95,63.73C87.33,64.68 82.5,66.67 81.82,66.67C81.42,66.67 81.36,65.87 81.36,61.19L81.36,61.2Z" style="fill:rgb(159,10,17);fill-rule:nonzero;"/>
    </g>
</svg>
